# xmcd
#
# Track frame offsets:
#	150
#	18764
#	40675
#	54258
#	80592
#	97255
#	113084
#	123663
#	143471
#	159151
#	184654
#	199042
#	214118
#
# Disc length: 3123 seconds
#
# Revision: 0
# Processed by: cddbd v1.5.1PL0 Copyright (c) Steve Scherf et al.
# Submitted via: dBpowerAMP V4.0
#
DISCID=a30c310d
DTITLE=Denis à Maurice - Jusqu'aux étoiles de mer
DYEAR=2005
DGENRE=Country
TTITLE0=Ti-Gars
TTITLE1=Faire l'amour dans les rangs d'coton
TTITLE2=Jusqu'aux étoiles de mer
TTITLE3=Ni vent ni nouvelle
TTITLE4=L'inconnu qui m'attend
TTITLE5=My sweet jolie
TTITLE6=The Good Time on the Hill
TTITLE7=Chaque larme qui tombe
TTITLE8=Mon bateau de papier
TTITLE9=Le Géant des Mers (Titanic)
TTITLE10=Coco tree
TTITLE11=À l'encre de tes yeux
TTITLE12=Ma délivrance
EXTD=ARTISTE DES ILES DE LA MADELEINE
EXTT0=
EXTT1=
EXTT2=
EXTT3=
EXTT4=
EXTT5=
EXTT6=
EXTT7=
EXTT8=
EXTT9=
EXTT10=
EXTT11=
EXTT12=
PLAYORDER=
